<svg id="Group_68" data-name="Group 68" xmlns="http://www.w3.org/2000/svg" width="198.238" height="307.105" viewBox="0 0 198.238 307.105">
  <g id="Group_66" data-name="Group 66">
    <path id="Path_97" data-name="Path 97" d="M8.293,128.3c2.682-.186,5.343-.433,7.984-.784L0,111.22v8.768Z" transform="translate(0 118.232)" fill="#263238"/>
    <path id="Path_98" data-name="Path 98" d="M26.1,136.255c2.373-.516,4.724-1.093,7.035-1.733L0,101.39v8.768Z" transform="translate(0 107.782)" fill="#263238"/>
    <path id="Path_99" data-name="Path 99" d="M41.88,142.2c2.125-.763,4.229-1.589,6.292-2.476L0,91.55v8.768Z" transform="translate(0 97.322)" fill="#263238"/>
    <path id="Path_100" data-name="Path 100" d="M56.053,146.531c1.919-.99,3.817-2.022,5.673-3.095L0,81.71v8.768Z" transform="translate(0 86.862)" fill="#263238"/>
    <path id="Path_101" data-name="Path 101" d="M68.823,149.451c1.733-1.176,3.445-2.393,5.137-3.631L0,71.88v8.768Z" transform="translate(0 76.412)" fill="#263238"/>
    <path id="Path_102" data-name="Path 102" d="M80.335,151.143c1.568-1.362,3.115-2.744,4.621-4.167L0,62.04v8.768Z" transform="translate(0 65.951)" fill="#263238"/>
    <path id="Path_103" data-name="Path 103" d="M90.671,151.639c1.4-1.527,2.785-3.074,4.105-4.662L0,52.2v8.768Z" transform="translate(0 55.491)" fill="#263238"/>
    <path id="Path_104" data-name="Path 104" d="M99.831,150.959c1.238-1.692,2.434-3.425,3.569-5.178L0,42.36v8.768Z" transform="translate(0 45.031)" fill="#263238"/>
    <path id="Path_105" data-name="Path 105" d="M107.774,149.062c1.052-1.877,2.063-3.8,3.012-5.735L0,32.52v8.768Z" transform="translate(0 34.57)" fill="#263238"/>
    <path id="Path_106" data-name="Path 106" d="M114.375,145.823c.846-2.1,1.65-4.229,2.393-6.375L0,22.68v8.768Z" transform="translate(0 24.11)" fill="#263238"/>
    <path id="Path_107" data-name="Path 107" d="M119.45,141.048c.619-2.352,1.155-4.724,1.65-7.138L0,12.85v8.768Z" transform="translate(0 13.66)" fill="#263238"/>
    <path id="Path_108" data-name="Path 108" d="M122.648,134.426c.309-2.682.536-5.364.66-8.087L0,3.01v8.768Z" transform="translate(0 3.2)" fill="#263238"/>
    <path id="Path_109" data-name="Path 109" d="M119.823,108.475,12.111.784C8.975.392,5.8.144,2.58,0L120.607,118.027C120.462,114.809,120.194,111.631,119.823,108.475Z" transform="translate(2.743)" fill="#263238"/>
    <path id="Path_110" data-name="Path 110" d="M101.463,80.275,26.491,5.3A126.136,126.136,0,0,0,14.01,1.59l91.145,91.145A121.879,121.879,0,0,0,101.463,80.275Z" transform="translate(14.893 1.69)" fill="#263238"/>
    <path id="Path_111" data-name="Path 111" d="M30.61,8.36,73.563,51.313A124.08,124.08,0,0,0,30.61,8.36Z" transform="translate(32.54 8.887)" fill="#263238"/>
  </g>
  <path id="Path_112" data-name="Path 112" d="M36.73,80.25,48.18,95.805,36.73,111.34l11.45,15.576L36.73,142.471l11.45,15.555L36.73,173.562l11.45,15.576L36.73,204.693l12.585,17.1,2.063-1.527L39.948,204.693l11.429-15.555L39.948,173.562l11.409-15.514.021-.021h0v-.021l-.021-.021L39.948,142.471l11.429-15.555h0L39.948,111.34,51.357,95.826l.021-.021h0v-.021l-.021-.021L39.948,80.25Z" transform="translate(39.046 85.309)" fill="#263238"/>
  <g id="Group_67" data-name="Group 67" transform="translate(65.914 214.227)">
    <path id="Path_113" data-name="Path 113" d="M79.689,131.4,55.819,145.183,31.95,158.965V103.84l23.869,13.781Z" transform="translate(-31.95 -103.84)" fill="#263238"/>
    <path id="Path_114" data-name="Path 114" d="M105.806,122.813l-9.428,5.446-9.428,5.446V111.92l9.428,5.446Z" transform="translate(26.518 -95.251)" fill="#263238"/>
  </g>
</svg>
