<svg xmlns="http://www.w3.org/2000/svg" width="79.194" height="36.806" viewBox="0 0 79.194 36.806">
  <g id="Group_251" data-name="Group 251" transform="translate(0 -2.385)">
    <path id="Path_1" data-name="Path 1" d="M11.159,10.018,22.123,23.865c10.609,16.889,21.058,14.2,21.058,14.2S29.361,44.985,15.9,24.512v8.631H11.159ZM29.689,2.5l3.069,2.634,3.069,2.634H32.022V31.546L21.067,17.708C10.449.828,0,3.507,0,3.507S13.829-3.4,27.285,17.07V7.783H23.56l3.069-2.634Z" fill="#f98e1c" fill-rule="evenodd"/>
    <path id="Path_2" data-name="Path 2" d="M73.7,28.169c0,2.289,0,4.249-.124,5.3-.071.718-.222,1.268-.718,1.366a3.867,3.867,0,0,1-.9.1c-.3,0-.4.071-.4.2,0,.177.177.248.5.248.993,0,2.555-.071,3.131-.071.692,0,2.262.071,3.9.071.275,0,.47-.071.47-.248,0-.124-.124-.2-.4-.2a11.669,11.669,0,0,1-1.268-.1c-.745-.1-.9-.648-.967-1.339-.124-1.064-.124-3.034-.124-5.313v-10.2l3.131.071c2.209.053,2.883.745,2.927,1.393l.027.275c.027.373.071.5.275.5.151,0,.2-.151.222-.4,0-.648.071-2.36.071-2.883,0-.373-.027-.523-.2-.523-.1,0-.3.053-.674.124a11.432,11.432,0,0,1-1.712.124H71.037c-.816,0-1.765-.053-2.484-.124a5.784,5.784,0,0,1-1.064-.3c-.151,0-.222.151-.3.47-.044.213-.523,2.475-.523,2.874,0,.275.053.4.222.4.151,0,.222-.1.275-.3a3.116,3.116,0,0,1,.426-.869c.373-.55.967-.674,2.413-.718l3.7-.1ZM58.193,35.718A7.152,7.152,0,0,0,62.14,34.7a5,5,0,0,0,2.333-4.32c0-2.36-1.064-4.071-4.071-6.333l-.692-.523c-2.058-1.561-2.634-2.43-2.634-3.575,0-1.49,1.118-2.555,2.954-2.555a3.146,3.146,0,0,1,2.705,1.215,3.012,3.012,0,0,1,.648,1.641c0,.3.071.444.248.444.2,0,.275-.2.275-.745,0-1.934.1-2.661.1-2.98,0-.177-.124-.248-.346-.3a11.826,11.826,0,0,0-3.3-.426c-3.451,0-5.739,1.96-5.739,4.692,0,2.014.94,3.752,3.681,5.89l1.144.9c2.058,1.614,2.43,2.759,2.43,3.974a3.017,3.017,0,0,1-3.326,2.83,3.432,3.432,0,0,1-3.557-2.51,5.233,5.233,0,0,1-.222-1.268c0-.2-.027-.426-.248-.426-.2,0-.275.275-.3.648-.027.4-.124,1.889-.124,3.255,0,.55.071.674.47.843A8.527,8.527,0,0,0,58.193,35.718ZM40.23,28.169c0,2.289,0,4.249-.124,5.3-.1.718-.222,1.268-.718,1.366a3.867,3.867,0,0,1-.9.1c-.3,0-.4.071-.4.2,0,.177.177.248.5.248.5,0,1.144-.053,1.712-.053.594-.027,1.144-.027,1.419-.027.745,0,1.517.027,2.581.071,1.064.027,2.43.071,4.3.071.94,0,1.171,0,1.339-.648a19.415,19.415,0,0,0,.319-2.759c0-.248,0-.444-.2-.444-.177,0-.222.1-.275.373-.177,1.02-.47,1.543-1.118,1.836a6.222,6.222,0,0,1-2.333.3c-2.537,0-2.927-.373-2.98-2.085-.027-.718,0-3.007,0-3.85V26.2c0-.151.027-.248.151-.248.594,0,3.051.027,3.53.071.923.1,1.268.47,1.393.967a7.412,7.412,0,0,1,.1.9.2.2,0,0,0,.222.222c.222,0,.222-.275.222-.47,0-.177.071-1.171.1-1.668.1-1.268.2-1.668.2-1.81s-.071-.2-.177-.2c-.124,0-.222.124-.4.319-.222.248-.594.319-1.189.373-.568.053-3.433.053-3.974.053-.151,0-.177-.1-.177-.275v-6.28c0-.177.053-.248.177-.248.5,0,3.1.053,3.53.1,1.242.151,1.49.444,1.668.9a2.683,2.683,0,0,1,.151.9c0,.222.053.346.222.346s.222-.151.248-.275c.053-.3.1-1.393.124-1.641a15.494,15.494,0,0,1,.2-1.614c0-.124-.027-.222-.151-.222a2.182,2.182,0,0,0-.4.1,9.636,9.636,0,0,1-1.064.151c-.47.027-5.42.027-6.209.027-.346,0-.923-.027-1.561-.053-.621,0-1.339-.027-2.014-.027-.373,0-.55.053-.55.222s.151.222.426.222a5.606,5.606,0,0,1,.967.071c.816.177,1.02.568,1.064,1.419.053.8.053,1.49.053,5.269Z" transform="translate(-4.261 -1.564)" fill="#f98e1c"/>
    <path id="Path_3" data-name="Path 3" d="M80.626,14.309a1.833,1.833,0,0,0,1.011-.257,1.289,1.289,0,0,0,.594-1.1c0-.6-.275-1.038-1.038-1.614l-.177-.133c-.523-.4-.674-.621-.674-.914a.668.668,0,0,1,.754-.656.814.814,0,0,1,.86.727c0,.08.018.115.062.115s.071-.053.071-.186c0-.5.027-.674.027-.763,0-.044-.035-.062-.089-.08a3.128,3.128,0,0,0-.843-.106c-.878,0-1.464.5-1.464,1.2a1.865,1.865,0,0,0,.94,1.5l.293.231c.523.408.621.7.621,1.011a.765.765,0,0,1-.852.718.873.873,0,0,1-.9-.639.951.951,0,0,1-.071-.319c0-.053-.009-.106-.062-.106s-.071.071-.08.169-.035.479-.035.834c0,.142.018.169.124.213a2.3,2.3,0,0,0,.931.16m-8.586-.727c-.035.213-.08.461-.257.5a.883.883,0,0,1-.186.018c-.062,0-.1.009-.1.044,0,.053.053.071.115.071.2,0,.506-.018.63-.018s.4.018.665.018c.1,0,.151-.009.151-.071,0-.035-.044-.044-.1-.044a1.215,1.215,0,0,1-.266-.035c-.106-.027-.186-.08-.186-.2,0-.1.009-.186.018-.3l.328-2.519h.027c.222.479.6,1.277.656,1.41.08.177.577,1.144.727,1.437.1.186.169.319.222.319s.089-.053.231-.355L76.1,10.974h.027l.381,2.785c.027.177.009.257-.035.275s-.071.035-.071.071.035.053.186.071c.257.018,1.127.035,1.286.035.089,0,.169-.018.169-.071,0-.035-.044-.044-.1-.044a1.351,1.351,0,0,1-.39-.062c-.186-.053-.257-.239-.31-.639L76.67,9.475c-.018-.133-.053-.2-.115-.2s-.089.053-.142.151L74.692,13.05l-1.73-3.575c-.08-.169-.124-.2-.169-.2s-.089.053-.106.169Zm-4.329.408c-1.215,0-1.943-1.047-1.943-2.368,0-1.579.834-1.987,1.561-1.987,1.038,0,1.854.878,1.854,2.3C69.184,13.777,68.155,13.99,67.711,13.99Zm-.266.319a2.508,2.508,0,0,0,2.626-2.6,2.3,2.3,0,0,0-2.564-2.368,2.442,2.442,0,0,0-2.617,2.484A2.416,2.416,0,0,0,67.445,14.309Zm-5.979,0a1.833,1.833,0,0,0,1.011-.257,1.289,1.289,0,0,0,.594-1.1c0-.6-.275-1.038-1.038-1.614l-.177-.133c-.523-.4-.674-.621-.674-.914a.668.668,0,0,1,.754-.656.814.814,0,0,1,.86.727c0,.08.018.115.062.115s.071-.053.071-.186c0-.5.027-.674.027-.763,0-.044-.035-.062-.089-.08a3.128,3.128,0,0,0-.843-.106c-.878,0-1.464.5-1.464,1.2a1.865,1.865,0,0,0,.94,1.5l.293.231c.523.408.621.7.621,1.011a.765.765,0,0,1-.852.718.873.873,0,0,1-.9-.639,1.14,1.14,0,0,1-.053-.319c0-.053-.009-.106-.062-.106s-.071.071-.08.169-.035.479-.035.834c0,.142.018.169.124.213A2.188,2.188,0,0,0,61.466,14.309Zm-4.692,0a1.833,1.833,0,0,0,1.011-.257,1.289,1.289,0,0,0,.594-1.1c0-.6-.275-1.038-1.038-1.614l-.177-.133c-.523-.4-.674-.621-.674-.914a.668.668,0,0,1,.754-.656.814.814,0,0,1,.86.727c0,.08.018.115.062.115s.071-.053.071-.186c0-.5.027-.674.027-.763,0-.044-.035-.062-.089-.08a3.128,3.128,0,0,0-.843-.106c-.878,0-1.464.5-1.464,1.2a1.865,1.865,0,0,0,.94,1.5l.293.231c.523.408.621.7.621,1.011a.765.765,0,0,1-.852.718.873.873,0,0,1-.9-.639,1.14,1.14,0,0,1-.053-.319c0-.053-.009-.106-.062-.106s-.071.071-.08.169-.035.479-.035.834c0,.142.018.169.124.213A2.162,2.162,0,0,0,56.774,14.309Zm-5.331-.319c-1.215,0-1.943-1.047-1.943-2.368,0-1.579.834-1.987,1.561-1.987,1.038,0,1.854.878,1.854,2.3C52.915,13.777,51.886,13.99,51.443,13.99Zm-.266.319a2.508,2.508,0,0,0,2.626-2.6,2.3,2.3,0,0,0-2.564-2.368,2.442,2.442,0,0,0-2.617,2.484A2.416,2.416,0,0,0,51.177,14.309ZM45.3,11.267c0-.967,0-1.144.009-1.339.009-.222.062-.328.231-.364.08-.009.177-.018.248-.018s.115-.009.115-.053-.044-.053-.133-.053c-.248,0-.71.018-.86.018-.169,0-.568-.018-.869-.018-.1,0-.142.009-.142.053s.035.053.106.053a1.368,1.368,0,0,1,.213.018c.213.044.257.142.275.364.009.2.009.381.009,1.339v1.118a13.4,13.4,0,0,1-.035,1.348c-.027.186-.053.319-.186.346a1.271,1.271,0,0,1-.231.027c-.08,0-.1.018-.1.053s.044.062.124.062c.124,0,.293-.009.435-.009s.293-.009.364-.009c.257,0,.488.009.772.018s.612.018,1.073.018c.328,0,.364-.035.4-.169a4.731,4.731,0,0,0,.1-.727c0-.08-.009-.106-.053-.106s-.062.035-.071.1a.715.715,0,0,1-.169.381c-.16.169-.408.177-.745.177-.5,0-.656-.044-.763-.142-.133-.115-.133-.55-.133-1.366V11.267Zm-3.947,1.872a.734.734,0,0,1-.763.807,1.125,1.125,0,0,1-.461-.08c-.2-.08-.222-.186-.222-.612v-1.5c0-.035.009-.044.035-.044.1,0,.16,0,.275.009a.855.855,0,0,1,.523.151A1.541,1.541,0,0,1,41.357,13.139ZM39.912,9.812c0-.071.009-.1.053-.106a1.507,1.507,0,0,1,.213-.009c.541,0,.789.559.789.985a.847.847,0,0,1-.257.674.627.627,0,0,1-.452.124,2.162,2.162,0,0,1-.3-.018c-.027-.009-.044-.018-.044-.071V9.812Zm-.763,2.572a13.4,13.4,0,0,1-.035,1.348c-.027.186-.053.319-.186.346a1.271,1.271,0,0,1-.231.027c-.08,0-.1.018-.1.053s.044.062.124.062c.124,0,.293-.009.435-.009s.293-.009.364-.009c.1,0,.284.009.479.018s.364.018.444.018c1.162,0,1.694-.7,1.694-1.384a1.532,1.532,0,0,0-1.153-1.366,1.375,1.375,0,0,0,.648-1.109c0-.337-.2-.949-1.348-.949-.213,0-.461.018-.772.018-.124,0-.523-.018-.86-.018-.1,0-.142.009-.142.053s.035.053.106.053a1.8,1.8,0,0,1,.248.018c.213.044.257.142.275.364.009.2.009.381.009,1.339Z" transform="translate(-4.35 -0.779)" fill="#fff"/>
    <path id="Path_4" data-name="Path 4" d="M24.242,16.45a5.708,5.708,0,1,1-5.712,5.7,5.7,5.7,0,0,1,5.712-5.7" transform="translate(-2.093 -1.589)" fill="#fff" fill-rule="evenodd"/>
    <path id="Path_5" data-name="Path 5" d="M24.35,17.39a4.87,4.87,0,1,1-4.87,4.87,4.872,4.872,0,0,1,4.87-4.87" transform="translate(-2.201 -1.695)" fill="#595959" fill-rule="evenodd"/>
    <path id="Path_6" data-name="Path 6" d="M25.273,21.939a.849.849,0,0,0-.24-.506.679.679,0,0,0-.479-.177.991.991,0,0,0-.816.506,2.115,2.115,0,0,0-.346,1.224.86.86,0,0,0,.169.577.6.6,0,0,0,.479.2.9.9,0,0,0,.621-.257,1.275,1.275,0,0,0,.381-.674ZM25.06,23.7a1.487,1.487,0,0,1-.523.506,1.435,1.435,0,0,1-.7.16,1.275,1.275,0,0,1-.985-.355,1.484,1.484,0,0,1-.337-1.047,2.445,2.445,0,0,1,.577-1.65,1.789,1.789,0,0,1,1.41-.665,1.143,1.143,0,0,1,.568.133,1.076,1.076,0,0,1,.4.4l.222-.4h.736l-.6,2.457a.315.315,0,0,0-.018.089c0,.027-.009.053-.009.08a.246.246,0,0,0,.1.213.506.506,0,0,0,.293.071.812.812,0,0,0,.337-.08,1.3,1.3,0,0,0,.328-.231,2.138,2.138,0,0,0,.541-.772,2.441,2.441,0,0,0,.186-.967,2.034,2.034,0,0,0-.763-1.623,2.953,2.953,0,0,0-1.969-.639,3.847,3.847,0,0,0-1.082.142,2.908,2.908,0,0,0-.9.417,3.149,3.149,0,0,0-1.073,1.171,3.253,3.253,0,0,0-.373,1.543,2.544,2.544,0,0,0,.852,2.014,3.281,3.281,0,0,0,2.271.754,4.352,4.352,0,0,0,1.3-.2,4.19,4.19,0,0,0,1.18-.585l.337.479a4.6,4.6,0,0,1-1.331.71,4.534,4.534,0,0,1-1.472.24,4.957,4.957,0,0,1-1.446-.2,3.767,3.767,0,0,1-1.18-.585,3.2,3.2,0,0,1-.949-1.144,3.3,3.3,0,0,1-.319-1.472,4.033,4.033,0,0,1,.213-1.313,3.6,3.6,0,0,1,.639-1.135,4.013,4.013,0,0,1,1.464-1.127,4.578,4.578,0,0,1,1.907-.381,4.456,4.456,0,0,1,1.3.186,3.33,3.33,0,0,1,1.064.532,2.692,2.692,0,0,1,1.1,2.235,2.929,2.929,0,0,1-.266,1.251,2.762,2.762,0,0,1-.772.985,2.213,2.213,0,0,1-.63.355,2.094,2.094,0,0,1-.71.124,1,1,0,0,1-.656-.177A.571.571,0,0,1,25.06,23.7Z" transform="translate(-2.334 -1.844)" fill="#fff"/>
    <rect id="Rectangle_2" data-name="Rectangle 2" width="6.103" height="0.701" transform="translate(10.467 33.107)" fill="#f98e1c"/>
    <rect id="Rectangle_3" data-name="Rectangle 3" width="0.923" height="0.923" transform="translate(28.58 4.651)" fill="#595959"/>
    <rect id="Rectangle_4" data-name="Rectangle 4" width="0.923" height="0.923" transform="translate(28.58 5.92)" fill="#595959"/>
    <rect id="Rectangle_5" data-name="Rectangle 5" width="0.923" height="0.923" transform="translate(29.875 4.651)" fill="#595959"/>
    <rect id="Rectangle_6" data-name="Rectangle 6" width="0.923" height="0.923" transform="translate(29.875 5.92)" fill="#595959"/>
  </g>
</svg>
